inDegrees=no
num_controls=7
num_derivatives=13
num_iterations=99
num_multipliers=7
num_parameters=0
num_slacks=7
num_states=26
objective=4.965020
objective_accelerations=0.697979
objective_balance=0.085413
objective_effort=0.676985
objective_height=3.450985
objective_ligament=0.053659
solver_duration=1022.637241
status=Solve_Succeeded
success=true
DataType=double
version=3
OpenSimVersion=4.4-2022-07-23-0e9fedc
endheader
time	/jointset/ground_pelvis/pelvis_tilt/value	/jointset/ground_pelvis/pelvis_tx/value	/jointset/ground_pelvis/pelvis_ty/value	/jointset/hip_l/hip_flexion_l/value	/jointset/hip_l/hip_adduction_l/value	/jointset/hip_l/hip_rotation_l/value	/jointset/back/lumbar_extension/value	/jointset/patellofemoral_l/patellar_flexion_l/value	/jointset/knee_l/knee_flexion_l/value	/jointset/knee_l/knee_adduction_l/value	/jointset/knee_l/knee_rotation_l/value	/jointset/ankle_l/ankle_angle_l/value	/jointset/subtalar_l/subtalar_angle_l/value	/jointset/ground_pelvis/pelvis_tilt/speed	/jointset/ground_pelvis/pelvis_tx/speed	/jointset/ground_pelvis/pelvis_ty/speed	/jointset/hip_l/hip_flexion_l/speed	/jointset/hip_l/hip_adduction_l/speed	/jointset/hip_l/hip_rotation_l/speed	/jointset/back/lumbar_extension/speed	/jointset/patellofemoral_l/patellar_flexion_l/speed	/jointset/knee_l/knee_flexion_l/speed	/jointset/knee_l/knee_adduction_l/speed	/jointset/knee_l/knee_rotation_l/speed	/jointset/ankle_l/ankle_angle_l/speed	/jointset/subtalar_l/subtalar_angle_l/speed	/forceset/tau_hip_flexion_l	/forceset/tau_hip_adduction_l	/forceset/tau_hip_rotation_l	/forceset/tau_knee_flexion_l	/forceset/tau_ankle_angle_l	/forceset/tau_subtalar_angle_l	/forceset/tau_lumbar_extension	lambda_cid13_p0	lambda_cid13_p1	lambda_cid13_p2	lambda_cid13_p3	lambda_cid13_p4	lambda_cid13_p5	lambda_cid14_p0	/jointset/ground_pelvis/pelvis_tilt/accel	/jointset/ground_pelvis/pelvis_tx/accel	/jointset/ground_pelvis/pelvis_ty/accel	/jointset/hip_l/hip_flexion_l/accel	/jointset/hip_l/hip_adduction_l/accel	/jointset/hip_l/hip_rotation_l/accel	/jointset/back/lumbar_extension/accel	/jointset/patellofemoral_l/patellar_flexion_l/accel	/jointset/knee_l/knee_flexion_l/accel	/jointset/knee_l/knee_adduction_l/accel	/jointset/knee_l/knee_rotation_l/accel	/jointset/ankle_l/ankle_angle_l/accel	/jointset/subtalar_l/subtalar_angle_l/accel	gamma_cid13_p0	gamma_cid13_p1	gamma_cid13_p2	gamma_cid13_p3	gamma_cid13_p4	gamma_cid13_p5	gamma_cid14_p0
1	-0.1449296678888667	-0.05108560454680496	0.4272837797062739	2.089436315885912	-0.3021795163191561	0.1205896779317661	-0.9599265971645677	2.093165223735002	2.093165223735	0.174529910010486	-0.174530578572196	0.2988318566496153	0.1084903460642477	0.05109761210181807	0.00785648605761868	0.07029618079281276	-0.2818658516023597	-0.02154750946671934	-0.05487531205951687	7.88484026699074e-05	-0.1267216150823424	-0.1267216150823428	-0.005359306042283496	7.730056374812755e-05	0.1000229193008295	0.02146696489534637	-0.4252466610709218	-0.02232348752905879	-0.06221820260991394	-0.400524075526133	0.03074829424691146	-0.003920467870556851	0.4613469123502693	-47.1144629587442	19.92154723446529	-15.01789884552941	25.21996596093231	-853.1574986331161	-14.40768766597474	-0.02285481231902128	-0.1323876861245186	-0.5094078794086134	2.540738779606474	-7.935937347785037	-0.4078869673189643	-1.828704855866517	-0.00344660097944328	-6.58735477396234	-6.587354773961778	-0.9902066469066788	-0.014164033899696	1.087658568694106	0.01897535875775045	-1.050869135519124e-09	7.411176949500942e-08	-2.14341711506197e-07	1.310963698004191e-08	-3.622932627056615e-08	-2.65870692492483e-09	1.054378418435939e-08
1.01	-0.1444259042523618	-0.05103266220883865	0.428114201674605	2.086220257936482	-0.3024137569637344	0.1199528222821539	-0.9599257377673748	2.091567016763181	2.09156701676319	0.1744240819446243	-0.1745292400864903	0.2998859267236754	0.1087078876528258	0.0496404815989622	0.002725129676799733	0.09582901010433603	-0.3613919050992179	-0.02526663971289827	-0.07243546216967699	8.598775647441316e-05	-0.1930692697783538	-0.1930692697783701	-0.01589962660283576	0.0001819595429370565	0.1106902925346189	0.02203721183833612	-0.4255443878949403	-0.02193228125874064	-0.06221284584579775	-0.4026555632329571	0.03052809549911286	-0.003577890360380163	0.4619032520673758	-47.27725691940353	19.81465583641598	-15.01614779992906	25.54364903535112	-854.6408723484246	-14.95495506817032	-0.02298725855847293	-0.154573218700029	-0.5160295657490674	2.565661931762605	-7.967867808378188	-0.3487730209925601	-1.710620964272144	0.001737711520321877	-6.680897287604813	-6.680897287607472	-1.099923208582591	0.02145877089730018	1.041155045796502	0.0754529547575061	6.117744028089689e-09	5.911329259824055e-08	-2.818573794942911e-07	-1.110334428221814e-08	-6.30284173264656e-08	-6.878021755479792e-08	1.443937675267202e-08
1.02	-0.1439371514181474	-0.05103123944434695	0.429201173321019	2.08220755376054	-0.3026841583043161	0.1191421749562956	-0.9599250182750432	2.089300847950363	2.089300847950366	0.1742100549836843	-0.1745271194295741	0.3010436461990904	0.1089310124293713	0.04809545164275066	-0.002447428637298482	0.1216061164093842	-0.4411950969057529	-0.02877964866808622	-0.08963364730709598	5.086742867915231e-05	-0.2603139832817334	-0.2603139832817626	-0.02699908508151544	0.0002337348048823815	0.1207527995714163	0.02258360248883802	-0.4258421147189367	-0.02154107498843535	-0.06220748908146992	-0.4047870509397848	0.03030789675130593	-0.003235312850228342	0.4624595917844988	-47.42991082672138	19.70877975603785	-15.01774561566934	25.82969758713289	-855.9937621152567	-15.45328473827256	-0.02317169739411294	-0.1499675767956634	-0.5176482660644393	2.589594178311468	-7.991365009720418	-0.3666627091209273	-1.756311861318311	-0.01189853729939643	-6.766766535435973	-6.766766535434791	-1.102034230532235	-0.02474077734868413	0.9666853292957354	0.01420410025998299	2.061766222173077e-08	1.422060271285666e-08	-4.046415686618556e-07	-4.099595261245056e-08	-9.76659220774491e-08	-3.35541876049253e-07	3.425820334586772e-08
1.03	-0.1434640314068066	-0.05108159308132382	0.4305470569875914	2.077395820261505	-0.302988631558799	0.118161405313558	-0.959924800217694	2.086358057704829	2.086358057704824	0.1738823420072177	-0.1745248130985116	0.3022986486297728	0.1091593627138218	0.04653641031368962	-0.007614983359428833	0.1476034435769862	-0.5211581221675046	-0.03207565649986344	-0.1065002709594608	-5.573702483283883e-06	-0.3283637760537197	-0.3283637760537199	-0.03858330015268916	0.0002346419133084793	0.130115011410488	0.02307429999815876	-0.4260679300179934	-0.02105574242058007	-0.06211487720968691	-0.4071093369668484	0.03042321281497378	-0.002751759365720241	0.4630687716674044	-47.45553437686134	19.50838849558203	-14.99165727450018	25.85973428212431	-857.3174834305487	-16.13994802642017	-0.02340036019362073	-0.1576928663701389	-0.5150761362652557	2.609699299699215	-7.999749787371126	-0.3050746455457426	-1.648835381804687	-0.002264562497468655	-6.842053151395914	-6.842053151392439	-1.19253213190079	0.0134513347231114	0.9010861469561446	0.06474795808921698	3.519238965037224e-08	-3.097713016220713e-08	-5.279897223312518e-07	-7.094651632092763e-08	-1.323834106416478e-07	-6.043508829913071e-07	5.423951191890925e-08
